<?xml version="1.0" ?><svg viewBox="0 0 64 64" xmlns="http://www.w3.org/2000/svg"><defs><style>.cls-1{fill:none;stroke:#000;stroke-linecap:round;stroke-linejoin:round;stroke-width:3px;}</style></defs><title/><g id="Outline"><path class="cls-1" d="M39.5,40.83H39l-7,8v-8H24.5a10,10,0,0,1-10-10V25.17a10,10,0,0,1,10-10h15a10,10,0,0,1,10,10v5.66A10,10,0,0,1,39.5,40.83Z"/><rect height="3.21" rx="1.5" ry="1.5" width="3.21" x="20.75" y="25.72"/><rect height="3.21" rx="1.5" ry="1.5" width="3.21" x="27.18" y="25.72"/><rect height="3.21" rx="1.5" ry="1.5" width="3.21" x="33.61" y="25.72"/><rect height="3.21" rx="1.5" ry="1.5" width="3.21" x="40.04" y="25.72"/></g></svg>